HIERARCHY
ROOT Hips
{
	OFFSET 0.000000 0.000000 0.000000
	CHANNELS 6 Xposition Yposition Zposition Xrotation Yrotation Zrotation
	JOINT LeftUpLeg_virtual
	{
		OFFSET 0.000000 0.000000 0.000000
		CHANNELS 3 Xrotation Yrotation Zrotation
		JOINT LeftUpLeg
		{
			OFFSET 11.394100 -6.187798 -0.413800
			CHANNELS 3 Xrotation Yrotation Zrotation
			JOINT LeftLeg
			{
				OFFSET 0.430247 -32.302673 3.732800
				CHANNELS 3 Xrotation Yrotation Zrotation
				JOINT LeftFoot
				{
					OFFSET -0.430247 -48.264931 -6.423300
					CHANNELS 3 Xrotation Yrotation Zrotation
					JOINT LeftToeBase
					{
						OFFSET 4.230900 -16.068199 23.438400
						CHANNELS 3 Xrotation Yrotation Zrotation
						JOINT LeftToe_End
						{
							OFFSET 4.510700 0.695400 19.974600
							CHANNELS 3 Xrotation Yrotation Zrotation
							End Site
							{
								OFFSET 0 0 0
							}
						}
					}
				}
			}
		}
	}
	JOINT RightUpLeg_virtual
	{
		OFFSET 0.000000 0.000000 0.000000
		CHANNELS 3 Xrotation Yrotation Zrotation
		JOINT RightUpLeg
		{
			OFFSET -11.333700 -6.187798 -0.413800
			CHANNELS 3 Xrotation Yrotation Zrotation
			JOINT RightLeg
			{
				OFFSET -0.430392 -32.302628 3.733000
				CHANNELS 3 Xrotation Yrotation Zrotation
				JOINT RightFoot
				{
					OFFSET 0.430392 -48.264973 -6.423500
					CHANNELS 3 Xrotation Yrotation Zrotation
					JOINT RightToeBase
					{
						OFFSET -4.230900 -16.068199 23.438400
						CHANNELS 3 Xrotation Yrotation Zrotation
						JOINT RightToe_End
						{
							OFFSET -4.510700 0.695400 19.974600
							CHANNELS 3 Xrotation Yrotation Zrotation
							End Site
							{
								OFFSET 0 0 0
							}
						}
					}
				}
			}
		}
	}
	JOINT Spine_virtual
	{
		OFFSET 0.000000 0.000000 0.000000
		CHANNELS 3 Xrotation Yrotation Zrotation
		JOINT Spine
		{
			OFFSET -0.002400 12.777504 0.315300
			CHANNELS 3 Xrotation Yrotation Zrotation
			JOINT Spine1
			{
				OFFSET -0.002067 5.816869 0.032633
				CHANNELS 3 Xrotation Yrotation Zrotation
				JOINT Spine1_split
				{
					OFFSET -0.002067 5.816869 0.032633
					CHANNELS 3 Xrotation Yrotation Zrotation
					JOINT Spine2
					{
						OFFSET -0.002067 5.816869 0.032633
						CHANNELS 3 Xrotation Yrotation Zrotation
						JOINT Neck_virtual
						{
							OFFSET 0.000000 0.000000 0.000000
							CHANNELS 3 Xrotation Yrotation Zrotation
							JOINT Neck
							{
								OFFSET -0.003700 21.199493 -0.826900
								CHANNELS 3 Xrotation Yrotation Zrotation
								JOINT Head
								{
									OFFSET 0.000000 20.442200 4.834800
									CHANNELS 3 Xrotation Yrotation Zrotation
									JOINT HeadTop_End
									{
										OFFSET 0.000000 34.668396 4.968400
										CHANNELS 3 Xrotation Yrotation Zrotation
										End Site
										{
											OFFSET 0 0 0
										}
									}
								}
							}
						}
						JOINT LeftShoulder_virtual
						{
							OFFSET 0.000000 0.000000 0.000000
							CHANNELS 3 Xrotation Yrotation Zrotation
							JOINT LeftShoulder
							{
								OFFSET 3.288150 8.794197 -1.372250
								CHANNELS 3 Xrotation Yrotation Zrotation
								JOINT LeftShoulder_split
								{
									OFFSET 3.288150 8.794197 -1.372250
									CHANNELS 3 Xrotation Yrotation Zrotation
									JOINT LeftArm
									{
										OFFSET 11.953299 -2.279007 -0.146200
										CHANNELS 3 Xrotation Yrotation Zrotation
										JOINT LeftForeArm
										{
											OFFSET 18.448900 0.000000 0.000000
											CHANNELS 3 Xrotation Yrotation Zrotation
											JOINT LeftHand
											{
												OFFSET 29.527798 0.000000 0.000000
												CHANNELS 3 Xrotation Yrotation Zrotation
												End Site
												{
													OFFSET 0 0 0
												}
											}
										}
									}
								}
							}
						}
						JOINT RightShoulder_virtual
						{
							OFFSET 0.000000 0.000000 0.000000
							CHANNELS 3 Xrotation Yrotation Zrotation
							JOINT RightShoulder
							{
								OFFSET -3.249400 8.794197 -1.372250
								CHANNELS 3 Xrotation Yrotation Zrotation
								JOINT RightShoulder_split
								{
									OFFSET -3.249400 8.794197 -1.372250
									CHANNELS 3 Xrotation Yrotation Zrotation
									JOINT RightArm
									{
										OFFSET -11.953299 -2.279007 -0.146200
										CHANNELS 3 Xrotation Yrotation Zrotation
										JOINT RightForeArm
										{
											OFFSET -18.448900 0.000000 0.000000
											CHANNELS 3 Xrotation Yrotation Zrotation
											JOINT RightHand
											{
												OFFSET -29.527802 0.000000 0.000000
												CHANNELS 3 Xrotation Yrotation Zrotation
												End Site
												{
													OFFSET 0 0 0
												}
											}
										}
									}
								}
							}
						}
					}
				}
			}
		}
	}
}
MOTION
Frames: 11
Frame Time: 0.03333333
9.038580 102.181656 -3.257431 0.000000 0.000000 0.000000 -0.785392 -20.945477 -1.729151 -10.814198 5.349284 0.377462 14.220955 11.088420 2.874250 -4.344172 18.312685 -1.063652 -2.405112 0.400582 -1.828007 0.000000 0.000000 0.000000 0.019638 -20.886932 -1.807739 -15.448536 -7.270459 -9.717123 12.516777 2.606334 -0.115017 -3.741910 -3.543468 5.551569 -7.539767 0.152320 -0.000745 0.000000 0.000000 0.000000 -0.303135 -21.288822 -2.552807 3.870755 1.308179 -1.106194 0.515592 -0.038203 0.141685 1.102678 0.241908 0.254362 0.000000 0.000000 0.000000 1.305335 0.394914 -0.300412 1.144960 -1.032050 2.285487 13.320079 10.302219 5.610375 0.000000 0.000000 0.000000 0.851002 0.439634 -0.166975 2.227812 -2.820498 -11.608311 -0.501117 -1.074419 -1.904170 -6.797574 -19.043604 -56.060536 0.392754 -14.096208 0.399223 0.000000 0.000000 0.000000 0.936003 0.451877 -0.125010 2.423480 -2.699216 16.701913 -0.767116 2.841899 -2.985633 7.211126 2.401431 65.637421 1.816803 20.332140 1.465471 0.000000 0.000000 0.000000 
9.587989 102.160934 -2.956985 0.000000 0.000000 0.000000 -0.715598 -21.881032 -1.905129 -10.840620 5.520193 0.234888 14.103414 11.080667 2.879694 -4.362952 19.063601 -0.865163 -2.439566 0.416230 -1.765644 0.000000 0.000000 0.000000 0.052618 -21.760730 -1.986191 -15.680733 -7.287262 -9.640572 12.528838 2.785993 -0.146541 -4.169571 -3.449457 5.415178 -7.294344 0.112943 -0.043858 0.000000 0.000000 0.000000 -0.269970 -22.144293 -2.755406 3.623364 0.845714 -1.211383 0.466981 -0.126930 0.120646 1.161736 0.259349 0.247043 0.000000 0.000000 0.000000 1.276663 0.299543 -0.323351 1.135276 -1.129435 2.386136 13.605070 11.227236 5.929654 0.000000 0.000000 0.000000 0.803562 0.358085 -0.185395 2.177079 -3.053910 -11.496891 -0.591958 -1.004079 -1.918182 -7.106423 -20.689131 -56.333720 0.394652 -14.633216 0.410255 0.000000 0.000000 0.000000 0.901189 0.365750 -0.172046 2.486468 -3.260331 17.053555 -0.808685 2.762932 -3.052524 6.816861 3.048002 66.161830 1.834546 20.838516 1.473690 0.000000 0.000000 0.000000 
10.096250 102.148926 -2.668129 0.000000 0.000000 0.000000 -0.628127 -22.810803 -2.078727 -10.888762 5.728017 0.137556 13.973111 11.073722 2.905920 -4.338231 19.766048 -0.673105 -2.483284 0.432024 -1.710747 0.000000 0.000000 0.000000 0.097158 -22.616274 -2.166222 -15.917208 -7.334821 -9.541154 12.457033 2.864310 -0.184995 -4.464462 -3.354408 5.246536 -7.004276 0.078520 -0.109523 0.000000 0.000000 0.000000 -0.217588 -22.984864 -2.951147 3.399237 0.358017 -1.348002 0.416335 -0.209225 0.083127 1.225869 0.287623 0.241465 0.000000 0.000000 0.000000 1.244901 0.206506 -0.356986 1.139549 -1.223845 2.486277 13.884732 12.081934 6.333751 0.000000 0.000000 0.000000 0.759533 0.283414 -0.213586 2.113715 -3.340986 -11.317844 -0.673308 -0.934228 -1.921752 -7.270870 -22.432418 -56.617238 0.419825 -15.529424 0.434641 0.000000 0.000000 0.000000 0.879930 0.283625 -0.236192 2.550686 -3.852650 17.444371 -0.862398 2.651904 -3.081287 6.295878 3.794513 66.616570 1.857261 21.358775 1.479999 0.000000 0.000000 0.000000 
10.552279 102.152382 -2.403843 0.000000 0.000000 0.000000 -0.506780 -23.664013 -2.239791 -10.972842 5.947332 0.078056 13.820606 11.065459 2.952065 -4.240122 20.395659 -0.481545 -2.562519 0.447638 -1.658965 0.000000 0.000000 0.000000 0.192472 -23.406940 -2.332214 -16.134510 -7.378075 -9.429113 12.243193 2.851476 -0.235985 -4.532733 -3.255435 5.142311 -6.807913 0.047951 -0.182131 0.000000 0.000000 0.000000 -0.117769 -23.762600 -3.124089 3.186250 -0.152279 -1.534753 0.359723 -0.288051 0.025104 1.251214 0.314697 0.258360 0.000000 0.000000 0.000000 1.201872 0.113757 -0.406676 1.153151 -1.317040 2.610889 14.173499 12.855122 6.818685 0.000000 0.000000 0.000000 0.714843 0.214504 -0.255977 2.038617 -3.669155 -11.057832 -0.739548 -0.857575 -1.907233 -7.269615 -24.240430 -56.939315 0.479463 -16.845487 0.472364 0.000000 0.000000 0.000000 0.866377 0.203834 -0.321823 2.618343 -4.477925 17.856280 -0.921462 2.507267 -3.076849 5.718327 4.606248 66.986179 1.881638 21.863818 1.493423 0.000000 0.000000 0.000000 
10.960823 102.177895 -2.156826 0.000000 0.000000 0.000000 -0.331133 -24.390030 -2.388070 -11.127835 6.158431 0.064107 13.637191 11.053562 3.015346 -4.057528 20.927788 -0.299911 -2.641178 0.462958 -1.621466 0.000000 0.000000 0.000000 0.370635 -24.116170 -2.476003 -16.302031 -7.383143 -9.289462 11.835365 2.743708 -0.305862 -4.395909 -3.163676 5.120825 -6.702016 0.021194 -0.239545 0.000000 0.000000 0.000000 0.061114 -24.439629 -3.267286 2.973960 -0.678436 -1.786714 0.295257 -0.369569 -0.050290 1.269611 0.344441 0.305387 0.000000 0.000000 0.000000 1.145859 0.018907 -0.472717 1.152723 -1.412646 2.781511 14.473787 13.531889 7.381829 0.000000 0.000000 0.000000 0.669261 0.145414 -0.312180 1.954739 -4.028755 -10.715156 -0.795174 -0.758129 -1.901016 -7.135761 -26.045169 -57.319330 0.565932 -18.518970 0.510716 0.000000 0.000000 0.000000 0.853193 0.121261 -0.425034 2.691426 -5.124835 18.270643 -0.963894 2.337347 -3.047544 5.169601 5.434384 67.283640 1.909021 22.369915 1.516875 0.000000 0.000000 0.000000 
11.316085 102.224525 -1.926922 0.000000 0.000000 0.000000 -0.087854 -24.980191 -2.527817 -11.371548 6.345500 0.108246 13.435172 11.025074 3.091819 -3.769088 21.347973 -0.166593 -2.679031 0.478219 -1.595487 0.000000 0.000000 0.000000 0.629774 -24.715279 -2.604914 -16.408102 -7.322371 -9.099363 11.263608 2.542404 -0.396591 -4.169491 -3.079454 5.151114 -6.592550 0.000512 -0.261272 0.000000 0.000000 0.000000 0.324800 -25.016418 -3.388174 2.766339 -1.207455 -2.108175 0.222504 -0.460209 -0.137174 1.270491 0.366198 0.358538 0.000000 0.000000 0.000000 1.079562 -0.080917 -0.549273 1.133463 -1.509279 3.011585 14.782840 14.091339 8.013343 0.000000 0.000000 0.000000 0.623387 0.067898 -0.378958 1.865521 -4.411950 -10.311887 -0.852744 -0.617624 -1.906147 -6.888126 -27.775538 -57.748464 0.656951 -20.405185 0.538063 0.000000 0.000000 0.000000 0.836775 0.030172 -0.538651 2.770802 -5.772391 18.660958 -0.977929 2.175432 -3.000451 4.730507 6.230375 67.530033 1.942564 22.905646 1.547825 0.000000 0.000000 0.000000 
11.616377 102.285347 -1.719318 0.000000 0.000000 0.000000 0.227196 -25.464123 -2.664011 -11.715960 6.485623 0.223446 13.244058 10.973640 3.174915 -3.385931 21.662290 -0.110227 -2.656777 0.495941 -1.578106 0.000000 0.000000 0.000000 0.956281 -25.199950 -2.730341 -16.458137 -7.183418 -8.839768 10.663838 2.244255 -0.508918 -3.973084 -3.009442 5.166257 -6.370371 -0.010182 -0.232627 0.000000 0.000000 0.000000 0.654551 -25.517450 -3.502228 2.573751 -1.716073 -2.496909 0.149930 -0.560267 -0.227296 1.260313 0.368360 0.416537 0.000000 0.000000 0.000000 1.009991 -0.185610 -0.629257 1.095014 -1.603876 3.293861 15.092461 14.522249 8.697792 0.000000 0.000000 0.000000 0.582282 -0.021296 -0.450622 1.772937 -4.802714 -9.869082 -0.940781 -0.479238 -1.926389 -6.570027 -29.322238 -58.191320 0.709363 -22.328618 0.540621 0.000000 0.000000 0.000000 0.815902 -0.071124 -0.653091 2.853596 -6.392152 19.004414 -0.985840 2.031792 -2.947421 4.442280 6.960561 67.743032 1.980992 23.492642 1.579890 0.000000 0.000000 0.000000 
11.864965 102.349693 -1.529476 0.000000 0.000000 0.000000 0.594698 -25.880367 -2.808269 -12.127988 6.591487 0.404306 13.068063 10.920070 3.269824 -2.978869 21.897183 -0.107104 -2.566464 0.516288 -1.564432 0.000000 0.000000 0.000000 1.312068 -25.604902 -2.871755 -16.503868 -6.981109 -8.513896 10.148203 1.862022 -0.637850 -3.846988 -2.955727 5.174015 -6.071450 -0.008608 -0.176157 0.000000 0.000000 0.000000 1.034463 -25.965253 -3.621876 2.420368 -2.176765 -2.944850 0.083610 -0.664434 -0.313611 1.262788 0.358375 0.438080 0.000000 0.000000 0.000000 0.943842 -0.291250 -0.705289 1.044693 -1.687253 3.609290 15.386292 14.822865 9.401171 0.000000 0.000000 0.000000 0.550772 -0.120837 -0.520940 1.683050 -5.188999 -9.423837 -1.046413 -0.336702 -1.957562 -6.248078 -30.615131 -58.601493 0.704660 -24.142376 0.515985 0.000000 0.000000 0.000000 0.795669 -0.176718 -0.759046 2.935289 -6.950782 19.282643 -0.998834 1.919845 -2.892431 4.317359 7.587643 67.930043 2.027729 24.134673 1.606096 0.000000 0.000000 0.000000 
12.058576 102.397606 -1.369926 0.000000 0.000000 0.000000 0.999438 -26.248280 -2.961895 -12.580776 6.681450 0.626904 12.919216 10.882837 3.376754 -2.622210 22.084186 -0.119521 -2.454745 0.537215 -1.543789 0.000000 0.000000 0.000000 1.672638 -25.948510 -3.035336 -16.592220 -6.736736 -8.149431 9.779431 1.429912 -0.785471 -3.820268 -2.903054 5.237107 -5.835330 0.000564 -0.121554 0.000000 0.000000 0.000000 1.441474 -26.374067 -3.752871 2.332534 -2.555132 -3.437967 0.034718 -0.758750 -0.392717 1.252145 0.363828 0.434586 0.000000 0.000000 0.000000 0.885112 -0.388535 -0.773219 0.996211 -1.760411 3.926644 15.645143 15.006004 10.080257 0.000000 0.000000 0.000000 0.534560 -0.218770 -0.586594 1.598186 -5.555430 -9.012219 -1.167790 -0.235012 -1.961811 -5.918759 -31.592692 -58.916891 0.649108 -25.780525 0.477273 0.000000 0.000000 0.000000 0.781028 -0.274745 -0.853726 3.005761 -7.420755 19.486458 -1.002171 1.838270 -2.849257 4.334000 8.094880 68.081871 2.078341 24.782158 1.622646 0.000000 0.000000 0.000000 
12.204004 102.424728 -1.233990 0.000000 0.000000 0.000000 1.423546 -26.579082 -3.121073 -13.064801 6.772297 0.865861 12.793918 10.866261 3.496655 -2.371966 22.242656 -0.122466 -2.377570 0.556977 -1.508476 0.000000 0.000000 0.000000 2.029280 -26.260267 -3.216861 -16.721152 -6.477266 -7.763961 9.556634 0.949906 -0.956778 -3.913051 -2.865530 5.349901 -5.735353 0.009984 -0.083410 0.000000 0.000000 0.000000 1.862369 -26.756779 -3.889673 2.332954 -2.823727 -3.958029 0.008076 -0.825042 -0.467354 1.246776 0.376520 0.412172 0.000000 0.000000 0.000000 0.836590 -0.463556 -0.836411 0.951384 -1.818142 4.211009 15.848383 15.085858 10.694795 0.000000 0.000000 0.000000 0.536155 -0.298465 -0.650050 1.521746 -5.893807 -8.660948 -1.285755 -0.157020 -1.928274 -5.613219 -32.227213 -59.102781 0.563924 -27.218623 0.442446 0.000000 0.000000 0.000000 0.777905 -0.347671 -0.938129 3.059428 -7.782283 19.616829 -1.004460 1.782062 -2.817472 4.469234 8.472258 68.187910 2.132374 25.368446 1.625679 0.000000 0.000000 0.000000 
12.303068 102.428337 -1.131222 0.000000 0.000000 0.000000 1.847732 -26.864309 -3.276046 -13.573211 6.865980 1.092315 12.703117 10.868498 3.629004 -2.237266 22.382532 -0.102654 -2.359434 0.572944 -1.459100 0.000000 0.000000 0.000000 2.377163 -26.557546 -3.403256 -16.883106 -6.248947 -7.381882 9.428272 0.396554 -1.151592 -4.127425 -2.876075 5.454427 -5.726005 0.013583 -0.059857 0.000000 0.000000 0.000000 2.283421 -27.109028 -4.022063 2.437271 -2.960874 -4.489535 0.004812 -0.846543 -0.542813 1.253594 0.409112 0.390217 0.000000 0.000000 0.000000 0.798331 -0.501756 -0.901080 0.903506 -1.866088 4.436385 15.981857 15.077228 11.204196 0.000000 0.000000 0.000000 0.550968 -0.342526 -0.715741 1.455649 -6.202578 -8.392517 -1.367268 -0.090667 -1.846091 -5.358131 -32.548843 -59.159561 0.486430 -28.480583 0.427034 0.000000 0.000000 0.000000 0.792898 -0.380394 -1.019922 3.095049 -8.034989 19.684697 -1.001504 1.747603 -2.815266 4.678178 8.723280 68.246881 2.190892 25.836606 1.615102 0.000000 0.000000 0.000000 
